<svg width="20" height="20" viewBox="0 0 20 20" fill="none" xmlns="http://www.w3.org/2000/svg">

<path id="facebook" fill-rule="evenodd" clip-rule="evenodd" d="M10.9844 19H6.99447V10.0005H5V6.89794H6.99447V5.03623C6.99447 2.50624 8.12094 1 11.3179 1H13.9805V4.10253H12.3176C11.0712 4.10253 10.9893 4.53668 10.9893 5.3462L10.9844 6.89794H14L13.6469 10.0005H10.9844V19Z" fill="white"/>

<g id="twitch">
  <path fill-rule="evenodd" clip-rule="evenodd" d="M20 13.8278V1.00024H2.22222L0 3.27611V15.2761H5.55556V19.0002H8L10.6667 16.3106H17.3333L20 13.8278ZM6.88892 13.621H3.33336C3.08892 13.621 2.88892 13.4348 2.88892 13.2072V3.06929C2.88892 2.8417 3.08892 2.6555 3.33336 2.6555H17.5556C17.8 2.6555 18 2.8417 18 3.06929V10.9314C18 11.0452 17.9556 11.1486 17.8723 11.2262L15.4278 13.502C15.3445 13.5796 15.2278 13.621 15.1111 13.621H11.0278L7.58336 15.8245C7.51114 15.871 7.42225 15.8969 7.33336 15.8969C7.26114 15.8969 7.19447 15.8814 7.12781 15.8503C6.97781 15.7779 6.88892 15.6383 6.88892 15.4831V13.621Z" fill="white"/>
  <path d="M13.5555 10.0004V5.86246H11.7777V10.0004H13.5555ZM9.11103 10.0004V5.86246H7.33325V10.0004H9.11103Z" fill="white"/>
</g>

<g id="twitter">
  <g clip-path="url(#clip0_151_563)">
  <path fill-rule="evenodd" clip-rule="evenodd" d="M21 3.895C20.2273 4.217 19.3966 4.432 18.5259 4.53C19.4156 4.03 20.0983 3.238 20.4202 2.296C19.5865 2.758 18.6649 3.094 17.6833 3.276C16.8986 2.49 15.778 2 14.5395 2C12.1604 2 10.2301 3.809 10.2301 6.039C10.2301 6.356 10.2681 6.665 10.3421 6.96C6.76142 6.791 3.58663 5.183 1.46144 2.74C1.09058 3.337 0.878665 4.03 0.878665 4.771C0.878665 6.171 1.63938 7.409 2.79494 8.133C2.0892 8.111 1.42546 7.93 0.843679 7.627C0.843679 7.645 0.843679 7.66 0.843679 7.679C0.843679 9.636 2.32811 11.268 4.29936 11.639C3.9385 11.731 3.55665 11.779 3.16479 11.779C2.8869 11.779 2.617 11.755 2.3541 11.709C2.90189 13.312 4.49329 14.481 6.37857 14.514C4.90413 15.597 3.04684 16.242 1.02761 16.242C0.679741 16.242 0.336872 16.223 0 16.186C1.90627 17.331 4.17141 18.001 6.60448 18.001C14.5295 18.001 18.8628 11.845 18.8628 6.508C18.8628 6.332 18.8578 6.159 18.8498 5.985C19.6915 5.415 20.4222 4.704 21 3.895Z" fill="white"/>
  </g>
  <defs>
  <clipPath id="clip0_151_563">
  <rect width="20" height="20" fill="white"/>
  </clipPath>
  </defs>
</g>

<path id="youtube" d="M15.8516 3H4.15274C1.86157 3 0 4.84177 0 7.10856V12.8914C0 15.1625 1.86157 17 4.15274 17H15.8472C18.1428 17 20 15.1582 20 12.8914V7.10856C20.0043 4.84177 18.1428 3 15.8516 3ZM13.0397 10.2855L7.5678 12.8657C7.42026 12.9344 7.25537 12.8313 7.25537 12.6682V7.34468C7.25537 7.18154 7.42894 7.0785 7.57214 7.15149L13.044 9.89482C13.2089 9.97639 13.2046 10.2082 13.0397 10.2855Z" fill="white"/>

</svg>
